<?xml version="1.0" encoding="utf-8"?>
<!-- Generator: Adobe Illustrator 27.2.0, SVG Export Plug-In . SVG Version: 6.00 Build 0)  -->
<svg version="1.1" id="Layer_1" xmlns="http://www.w3.org/2000/svg" xmlns:xlink="http://www.w3.org/1999/xlink" x="0px" y="0px"
	 viewBox="0 0 1080 1080" style="enable-background:new 0 0 1080 1080;" xml:space="preserve">
<style type="text/css">
	.st0{fill:#008000;}
	.st1{fill:#FFFFFF;}
</style>
<g>
	<polygon class="st0" points="1080,210 1080,870 975,870 975,975 870,975 870,1080 210,1080 210,975 105,975 105,870 0,870 0,210 
		105,210 105,105 210,105 210,0 870,0 870,105 975,105 975,210 	"/>
</g>
<rect x="290" y="811.8" class="st1" width="500" height="112.5"/>
<rect x="340" y="755.6" class="st1" width="400" height="112.5"/>
<rect x="390" y="423.6" class="st1" width="300" height="388.3"/>
<polygon class="st1" points="802.5,213.6 802.5,423.6 277.5,423.6 277.5,213.6 382.5,213.6 382.5,318.6 487.5,318.6 487.5,213.6 
	592.5,213.6 592.5,318.6 697.5,318.6 697.5,213.6 "/>
<rect x="487.5" y="213.6" class="st1" width="105" height="105"/>
<rect x="277.5" y="213.6" class="st1" width="105" height="105"/>
<rect x="697.5" y="213.6" class="st1" width="105" height="105"/>
</svg>
